/vscmnt/brussel_pixiu_data/_data_brussel/112/vsc11236/PredSimResults/SUBJ09_Falisse2022/weightedWalking/worker_05.mot
version=1
nRows=4
nColumns=124
inDegrees=yes
endheader
                time	         pelvis_tilt	         pelvis_list	     pelvis_rotation	           pelvis_tx	           pelvis_ty	           pelvis_tz	       hip_flexion_r	     hip_adduction_r	      hip_rotation_r	        knee_angle_r	       ankle_angle_r	    subtalar_angle_r	         mtp_angle_r	       hip_flexion_l	     hip_adduction_l	      hip_rotation_l	        knee_angle_l	       ankle_angle_l	    subtalar_angle_l	         mtp_angle_l	    lumbar_extension	      lumbar_bending	     lumbar_rotation	          arm_flex_r	           arm_add_r	           arm_rot_r	        elbow_flex_r	          arm_flex_l	           arm_add_l	           arm_rot_l	        elbow_flex_l	glut_med1_r/activation	glut_med2_r/activation	glut_med3_r/activation	glut_min1_r/activation	glut_min2_r/activation	glut_min3_r/activation	semimem_r/activation	semiten_r/activation	bifemlh_r/activation	bifemsh_r/activation	    sar_r/activation	add_long_r/activation	add_brev_r/activation	add_mag1_r/activation	add_mag2_r/activation	add_mag3_r/activation	    tfl_r/activation	   pect_r/activation	   grac_r/activation	glut_max1_r/activation	glut_max2_r/activation	glut_max3_r/activation	iliacus_r/activation	  psoas_r/activation	quad_fem_r/activation	    gem_r/activation	   peri_r/activation	rect_fem_r/activation	vas_med_r/activation	vas_int_r/activation	vas_lat_r/activation	med_gas_r/activation	lat_gas_r/activation	 soleus_r/activation	tib_post_r/activation	flex_dig_r/activation	flex_hal_r/activation	tib_ant_r/activation	per_brev_r/activation	per_long_r/activation	per_tert_r/activation	ext_dig_r/activation	ext_hal_r/activation	glut_med1_l/activation	glut_med2_l/activation	glut_med3_l/activation	glut_min1_l/activation	glut_min2_l/activation	glut_min3_l/activation	semimem_l/activation	semiten_l/activation	bifemlh_l/activation	bifemsh_l/activation	    sar_l/activation	add_long_l/activation	add_brev_l/activation	add_mag1_l/activation	add_mag2_l/activation	add_mag3_l/activation	    tfl_l/activation	   pect_l/activation	   grac_l/activation	glut_max1_l/activation	glut_max2_l/activation	glut_max3_l/activation	iliacus_l/activation	  psoas_l/activation	quad_fem_l/activation	    gem_l/activation	   peri_l/activation	rect_fem_l/activation	vas_med_l/activation	vas_int_l/activation	vas_lat_l/activation	med_gas_l/activation	lat_gas_l/activation	 soleus_l/activation	tib_post_l/activation	flex_dig_l/activation	flex_hal_l/activation	tib_ant_l/activation	per_brev_l/activation	per_long_l/activation	per_tert_l/activation	ext_dig_l/activation	ext_hal_l/activation	 ercspn_r/activation	 ercspn_l/activation	 intobl_r/activation	 intobl_l/activation	 extobl_r/activation	 extobl_l/activation	
          1.91549471	         -9.26117705	          4.25459554	         -3.46695970	          2.10704418	          0.98577124	          0.00565571	         -9.17930304	         -1.97091108	          9.57739502	         -4.80914186	          7.34610007	         -4.91523008	         28.11742349	         30.93969981	          4.87647914	          1.40139174	         -1.72518154	          9.53717776	         -9.46658179	          0.19224237	          2.39765688	         -2.99028272	          2.03710228	          7.28377382	        -13.48030387	         19.28269504	         68.84242162	        -14.53783857	        -13.45006329	         19.13604546	         21.44923910	          0.13785893	          0.14533929	          0.14923107	          0.14806435	          0.18520899	          0.17888060	          0.01094328	          0.01000038	          0.01000034	          0.05847808	          0.09423699	          0.01335807	          0.01000119	          0.01000137	          0.01000218	          0.01000053	          0.22233888	          0.01039885	          0.02162272	          0.02625113	          0.02174685	          0.01000343	          0.30901292	          0.46697634	          0.03860232	          0.03819185	          0.18125295	          0.03185383	          0.01000141	          0.01000128	          0.01000119	          0.35789464	          0.46469757	          0.33393026	          0.29221716	          0.32666082	          0.32487837	          0.01471010	          0.01000069	          0.01145031	          0.01000048	          0.01000319	          0.01095354	          0.08021849	          0.01212839	          0.01000047	          0.07601584	          0.01212928	          0.01212821	          0.19219696	          0.01212864	          0.01212893	          0.01000026	          0.01259278	          0.03614642	          0.15775208	          0.17414859	          0.14426646	          0.07930307	          0.01000467	          0.02142450	          0.04756417	          0.01000552	          0.01015010	          0.07391031	          0.01657318	          0.01508581	          0.25368644	          0.12679054	          0.01000043	          0.02550749	          0.12489126	          0.13228979	          0.10845151	          0.01000002	          0.01000007	          0.01000002	          0.01309412	          0.01000083	          0.01000111	          0.39504447	          0.18792024	          0.12850959	          0.20412692	          0.41711283	          0.08359688	          0.02352328	          0.05801185	          0.01000009	          0.02693910	          0.01000004	          0.05842940	
          1.92826467	         -9.24194987	          4.48514246	         -3.67080962	          2.12461519	          0.98425157	          0.00538378	         -9.12909451	         -2.17388268	          9.04746362	         -6.80653755	          7.18980437	         -4.42266258	         29.96391823	         30.17102760	          5.24552074	          1.73564876	         -1.82197213	          8.45472516	         -9.94121572	          0.19594594	          2.58123096	         -3.37187335	          2.10587128	          6.93847528	        -13.50285762	         19.24499648	         70.78740844	        -15.61007400	        -13.45233760	         18.96971894	         20.82404068	          0.11366697	          0.11983460	          0.12304342	          0.12208181	          0.15270789	          0.14748997	          0.01000190	          0.01000182	          0.01000170	          0.04821614	          0.07770007	          0.03324850	          0.01000046	          0.01000140	          0.01000444	          0.01000217	          0.18332209	          0.01000146	          0.01782927	          0.02164536	          0.01793123	          0.01146384	          0.25478620	          0.38502974	          0.03182829	          0.03149003	          0.14944599	          0.02626404	          0.01000231	          0.01000210	          0.01000194	          0.29756439	          0.41373474	          0.32567513	          0.27920221	          0.30899193	          0.31525600	          0.01212872	          0.01000033	          0.01000035	          0.01000029	          0.01000008	          0.01000037	          0.06614152	          0.01000015	          0.01000049	          0.06267634	          0.01000085	          0.01000021	          0.15855881	          0.01000052	          0.01000062	          0.01000010	          0.01038313	          0.02980347	          0.13006931	          0.14358906	          0.11895025	          0.06538674	          0.01000049	          0.01766808	          0.04995391	          0.01000269	          0.05917867	          0.06094035	          0.01366493	          0.01243859	          0.24268085	          0.10454101	          0.01000170	          0.02103137	          0.10297506	          0.10907525	          0.08942019	          0.01784028	          0.01784056	          0.01784014	          0.01079639	          0.01471281	          0.01472954	          0.32572053	          0.19272275	          0.12958048	          0.16830616	          0.42763735	          0.06892702	          0.03685162	          0.04783172	          0.01212826	          0.02221173	          0.01000011	          0.04817598	
          1.94103464	         -9.21687858	          4.70744078	         -3.85326394	          2.14241573	          0.98284694	          0.00509683	         -8.95424074	         -2.36739472	          8.48726388	         -9.04371330	          6.89995170	         -3.94660165	         31.76787933	         29.31969420	          5.57571188	          2.08662966	         -2.01418088	          7.46605623	        -10.41630232	          0.18593067	          2.78027576	         -3.75111279	          2.16461453	          6.51346393	        -13.52089903	         19.19917562	         72.61574842	        -16.67573697	        -13.46243956	         18.81799827	         20.31141473	          0.15490801	          0.09880558	          0.10145128	          0.14326922	          0.12591025	          0.12160790	          0.01000225	          0.01000085	          0.01000046	          0.03975500	          0.06406509	          0.04196807	          0.03238123	          0.01000428	          0.01000302	          0.01000083	          0.15115221	          0.04807116	          0.01470176	          0.01784754	          0.01478495	          0.01000083	          0.21007534	          0.31746325	          0.02624297	          0.02596419	          0.12322064	          0.02165515	          0.01000074	          0.01000068	          0.01000063	          0.24534662	          0.34113113	          0.30038294	          0.27140676	          0.30784982	          0.30603729	          0.01000035	          0.01000051	          0.01000045	          0.01000035	          0.01000011	          0.01000050	          0.14674996	          0.16585661	          0.20718467	          0.09699267	          0.13176100	          0.11936593	          0.13241644	          0.05196679	          0.03393445	          0.04681604	          0.01215286	          0.02457351	          0.10724427	          0.11839164	          0.09807657	          0.05391259	          0.01000296	          0.01456899	          0.06020878	          0.09586814	          0.06297593	          0.05024640	          0.01212812	          0.01212799	          0.20009474	          0.08619622	          0.16001569	          0.01734072	          0.08490468	          0.08993438	          0.07372846	          0.01470961	          0.01470985	          0.01470949	          0.01212886	          0.01213110	          0.01214485	          0.48032966	          0.24202524	          0.14531594	          0.37306559	          0.51183987	          0.21849423	          0.04234453	          0.05790989	          0.01000003	          0.01831398	          0.01000005	          0.03972187	
          1.95380460	         -9.18933917	          4.91240376	         -4.01562973	          2.16020757	          0.98170784	          0.00475778	         -8.61367661	         -2.54863821	          7.92053633	        -11.55214880	          6.44645706	         -3.47871512	         33.44606029	         28.39633654	          5.89099464	          2.42494582	         -2.07679567	          6.45014229	        -10.89165834	          0.17326418	          2.97704776	         -4.11326065	          2.21515307	          6.05212528	        -13.53648261	         19.15768987	         74.26897920	        -17.67721832	        -13.46755585	         18.70915908	         19.87173424	          0.12772470	          0.08146680	          0.08364822	          0.11922711	          0.10381513	          0.10026771	          0.01002959	          0.01000288	          0.01000181	          0.03277866	          0.05282280	          0.03460551	          0.08480635	          0.01001376	          0.01935002	          0.04683957	          0.12462757	          0.03963746	          0.01212277	          0.01471634	          0.01219098	          0.01000384	          0.17321051	          0.26175359	          0.02163778	          0.02140804	          0.10159742	          0.01785504	          0.01212864	          0.01212865	          0.01212862	          0.20229222	          0.28126813	          0.26467665	          0.25524971	          0.28768067	          0.28377106	          0.01000004	          0.01000593	          0.01212827	          0.01000046	          0.01000012	          0.01000039	          0.21996662	          0.26021070	          0.32647907	          0.07997505	          0.11906756	          0.19435200	          0.11014479	          0.06870569	          0.04940804	          0.03860064	          0.01002058	          0.02026132	          0.08842468	          0.09761627	          0.08086646	          0.06486292	          0.01000075	          0.01201468	          0.06408641	          0.16241261	          0.10800838	          0.05350694	          0.01000025	          0.01000025	          0.16498226	          0.07107053	          0.20218867	          0.01429772	          0.07000552	          0.07415258	          0.06079052	          0.01212833	          0.01212854	          0.01212821	          0.01000055	          0.01000256	          0.01001379	          0.55019598	          0.24061311	          0.13412624	          0.48721543	          0.54917570	          0.26101724	          0.06045110	          0.07055138	          0.01000004	          0.01510020	          0.01000004	          0.03275133	
